<?xml version="1.0" encoding="UTF-8"?><svg id="Layer_2" xmlns="http://www.w3.org/2000/svg" viewBox="0 0 400.48 224.26"><defs><style>.cls-1{fill:#fff;stroke-width:0px;}</style></defs><g id="_ÎÓÈ_1"><path class="cls-1" d="M366.45,156.18c-18.79,0-34.02,15.23-34.02,34.02s15.23,34.02,34.02,34.02,34.02-15.23,34.02-34.02-15.23-34.02-34.02-34.02Z"/><path class="cls-1" d="M311.56,110.26c-15.39-10.78-36.61-7.04-47.38,8.36l-.13.19c-3.63,4.96-10.55,6.12-15.63,2.6l-.04-.03c-5.1-3.63-6.34-10.67-2.75-15.8h0c5.38-7.68,7.13-16.83,5.62-25.41-1.51-8.56-6.29-16.56-14-21.96-15.38-10.77-36.61-7.03-47.39,8.35l-46.8,66.84s-.01.02-.03.04c-3.59,5.13-10.63,6.37-15.78,2.8l-.04-.02c-5.1-3.63-6.34-10.67-2.75-15.8l-.95,1.35,47.77-68.23c5.39-7.69,7.14-16.85,5.63-25.41-1.52-8.59-6.28-16.58-13.99-21.98-15.38-10.77-36.61-7.03-47.39,8.36L6.16,170.71c-5.4,7.71-7.14,16.85-5.65,25.43,1.53,8.57,6.31,16.58,14,21.96,15.4,10.79,36.6,7.05,47.39-8.36l36.54-52.19c3.6-5.09,10.65-6.34,15.75-2.76l.04.02c5.11,3.58,6.37,10.64,2.79,15.75t-.03.04v.02c-5.4,7.69-7.16,16.85-5.66,25.43,1.53,8.57,6.31,16.57,14,21.96,15.4,10.79,36.63,7.04,47.4-8.34l46.86-66.92c3.59-5.1,10.65-6.36,15.76-2.78l.04.03c5.04,3.53,6.33,10.46,2.91,15.55l-10.59,15.12c-10.78,15.39-7.04,36.61,8.36,47.39s36.61,7.04,47.39-8.36l36.45-52.05c10.78-15.39,7.04-36.61-8.36-47.39Z"/></g></svg>